# xmcd CD database file
#
# Track frame offsets:
#	150
#	1332
#	6558
#	23991
#	51449
#	80416
#	94373
#	126012
#	146154
#	168374
#	187304
#
# Disc length: 2554 seconds
#
# Revision: 0
# Processed by: cddbd v1.5.2PL0 Copyright (c) Steve Scherf et al.
# Submitted via: CDex 1.51
#
DISCID=9a09f80b
DTITLE=B.B.King - Live In Africa
DYEAR=1900
DGENRE=Blues
TTITLE0=Intro
TTITLE1=Opening Guitar Solo
TTITLE2=To Know You Is To Love You
TTITLE3=I Believe In My Soul
TTITLE4=Why I Sing The Blues
TTITLE5=Ain't Nobody Home
TTITLE6=Sweet Sixteen
TTITLE7=The Thrill Is Gone
TTITLE8=Guess Who
TTITLE9=I Like To Live The Love
TTITLE10=Outro
EXTD=
EXTT0=
EXTT1=
EXTT2=
EXTT3=
EXTT4=
EXTT5=
EXTT6=
EXTT7=
EXTT8=
EXTT9=
EXTT10=
PLAYORDER=
